{
	"patcher" : 	{
		"fileversion" : 1,
		"appversion" : 		{
			"major" : 7,
			"minor" : 3,
			"revision" : 0,
			"architecture" : "x86",
			"modernui" : 1
		}
,
		"rect" : [ 537.0, 79.0, 1092.0, 651.0 ],
		"bglocked" : 0,
		"openinpresentation" : 0,
		"default_fontsize" : 12.0,
		"default_fontface" : 0,
		"default_fontname" : "Arial",
		"gridonopen" : 1,
		"gridsize" : [ 15.0, 15.0 ],
		"gridsnaponopen" : 1,
		"objectsnaponopen" : 1,
		"statusbarvisible" : 2,
		"toolbarvisible" : 1,
		"lefttoolbarpinned" : 0,
		"toptoolbarpinned" : 0,
		"righttoolbarpinned" : 0,
		"bottomtoolbarpinned" : 0,
		"toolbars_unpinned_last_save" : 0,
		"tallnewobj" : 0,
		"boxanimatetime" : 200,
		"enablehscroll" : 1,
		"enablevscroll" : 1,
		"devicewidth" : 0.0,
		"description" : "",
		"digest" : "",
		"tags" : "",
		"style" : "",
		"subpatcher_template" : "",
		"boxes" : [ 			{
				"box" : 				{
					"bgmode" : 0,
					"border" : 0,
					"clickthrough" : 0,
					"embed" : 1,
					"enablehscroll" : 0,
					"enablevscroll" : 0,
					"id" : "obj-2",
					"lockeddragscroll" : 0,
					"maxclass" : "bpatcher",
					"numinlets" : 1,
					"numoutlets" : 1,
					"offset" : [ 0.0, 0.0 ],
					"outlettype" : [ "signal" ],
					"patcher" : 					{
						"fileversion" : 1,
						"appversion" : 						{
							"major" : 7,
							"minor" : 3,
							"revision" : 0,
							"architecture" : "x86",
							"modernui" : 1
						}
,
						"rect" : [ 1243.0, 607.0, 141.0, 116.0 ],
						"bgcolor" : [ 1.0, 1.0, 1.0, 0.0 ],
						"bglocked" : 0,
						"openinpresentation" : 1,
						"default_fontsize" : 12.0,
						"default_fontface" : 0,
						"default_fontname" : "Arial",
						"gridonopen" : 1,
						"gridsize" : [ 15.0, 15.0 ],
						"gridsnaponopen" : 1,
						"objectsnaponopen" : 1,
						"statusbarvisible" : 1,
						"toolbarvisible" : 1,
						"lefttoolbarpinned" : 0,
						"toptoolbarpinned" : 0,
						"righttoolbarpinned" : 0,
						"bottomtoolbarpinned" : 0,
						"toolbars_unpinned_last_save" : 0,
						"tallnewobj" : 0,
						"boxanimatetime" : 200,
						"enablehscroll" : 1,
						"enablevscroll" : 1,
						"devicewidth" : 0.0,
						"description" : "",
						"digest" : "",
						"tags" : "",
						"style" : "",
						"subpatcher_template" : "",
						"boxes" : [ 							{
								"box" : 								{
									"id" : "obj-18",
									"maxclass" : "message",
									"numinlets" : 2,
									"numoutlets" : 1,
									"outlettype" : [ "" ],
									"patching_rect" : [ 393.0, 330.0, 95.0, 22.0 ],
									"style" : "",
									"text" : "downsample $1"
								}

							}
, 							{
								"box" : 								{
									"activedialcolor" : [ 0.278431, 0.839216, 1.0, 1.0 ],
									"activeneedlecolor" : [ 1.0, 1.0, 1.0, 0.4 ],
									"annotation" : "",
									"bordercolor" : [ 1.0, 1.0, 1.0, 0.2 ],
									"focusbordercolor" : [ 1.0, 1.0, 1.0, 0.2 ],
									"id" : "obj-51",
									"maxclass" : "live.dial",
									"needlecolor" : [ 0.752941, 0.784314, 0.839216, 1.0 ],
									"numinlets" : 1,
									"numoutlets" : 2,
									"outlettype" : [ "", "float" ],
									"parameter_enable" : 1,
									"patching_rect" : [ 393.0, 247.985474, 44.0, 47.0 ],
									"presentation" : 1,
									"presentation_rect" : [ 81.0, 42.5, 44.0, 47.0 ],
									"prototypename" : "freq",
									"saved_attribute_attributes" : 									{
										"valueof" : 										{
											"parameter_longname" : "Rate[1]",
											"parameter_shortname" : "Rate",
											"parameter_type" : 1,
											"parameter_mmax" : 100.0,
											"parameter_initial_enable" : 1,
											"parameter_initial" : [ 50 ],
											"parameter_unitstyle" : 0,
											"parameter_speedlim" : 0.0,
											"parameter_annotation_name" : "Rate"
										}

									}
,
									"textcolor" : [ 1.0, 1.0, 1.0, 0.6 ],
									"varname" : "Rate"
								}

							}
, 							{
								"box" : 								{
									"id" : "obj-5",
									"maxclass" : "newobj",
									"numinlets" : 0,
									"numoutlets" : 1,
									"outlettype" : [ "bang" ],
									"patching_rect" : [ 39.0, 211.407501, 67.0, 22.0 ],
									"style" : "",
									"text" : "pastebang"
								}

							}
, 							{
								"box" : 								{
									"id" : "obj-7",
									"maxclass" : "newobj",
									"numinlets" : 2,
									"numoutlets" : 1,
									"outlettype" : [ "bang" ],
									"patching_rect" : [ 39.0, 245.407501, 63.0, 22.0 ],
									"style" : "",
									"text" : "delay 100"
								}

							}
, 							{
								"box" : 								{
									"id" : "obj-9",
									"maxclass" : "message",
									"numinlets" : 2,
									"numoutlets" : 1,
									"outlettype" : [ "" ],
									"patching_rect" : [ 39.0, 286.407501, 115.0, 22.0 ],
									"style" : "",
									"text" : "name #0_display"
								}

							}
, 							{
								"box" : 								{
									"id" : "obj-10",
									"maxclass" : "jit.pwindow",
									"name" : "1270_display",
									"numinlets" : 1,
									"numoutlets" : 2,
									"outlettype" : [ "", "" ],
									"patching_rect" : [ 39.0, 330.407501, 54.0, 54.0 ],
									"presentation" : 1,
									"presentation_rect" : [ 5.0, 40.0, 75.0, 54.0 ]
								}

							}
, 							{
								"box" : 								{
									"comment" : "",
									"id" : "obj-11",
									"maxclass" : "outlet",
									"numinlets" : 1,
									"numoutlets" : 0,
									"patching_rect" : [ 347.0, 217.0, 30.0, 30.0 ],
									"style" : ""
								}

							}
, 							{
								"box" : 								{
									"comment" : "",
									"id" : "obj-12",
									"maxclass" : "inlet",
									"numinlets" : 0,
									"numoutlets" : 1,
									"outlettype" : [ "signal" ],
									"patching_rect" : [ 347.0, 96.0, 30.0, 30.0 ],
									"style" : ""
								}

							}
, 							{
								"box" : 								{
									"fontname" : "Arial",
									"fontsize" : 12.0,
									"id" : "obj-101",
									"maxclass" : "newobj",
									"numinlets" : 1,
									"numoutlets" : 3,
									"outlettype" : [ "bang", "bang", "erase" ],
									"patching_rect" : [ 507.166626, 199.0, 69.0, 22.0 ],
									"style" : "",
									"text" : "t b b erase"
								}

							}
, 							{
								"box" : 								{
									"id" : "obj-14",
									"maxclass" : "newobj",
									"numinlets" : 2,
									"numoutlets" : 1,
									"outlettype" : [ "signal" ],
									"patching_rect" : [ 416.0, 176.0, 49.0, 22.0 ],
									"style" : "",
									"text" : "*~ 0.15"
								}

							}
, 							{
								"box" : 								{
									"fontname" : "Arial",
									"fontsize" : 12.0,
									"id" : "obj-15",
									"maxclass" : "message",
									"numinlets" : 2,
									"numoutlets" : 1,
									"outlettype" : [ "" ],
									"patching_rect" : [ 579.166626, 407.745605, 75.0, 22.0 ],
									"style" : "",
									"text" : "line_width 1"
								}

							}
, 							{
								"box" : 								{
									"fontface" : 0,
									"fontname" : "Arial",
									"fontsize" : 12.0,
									"id" : "obj-100",
									"linecount" : 3,
									"maxclass" : "newobj",
									"numinlets" : 1,
									"numoutlets" : 2,
									"outlettype" : [ "bang", "" ],
									"patching_rect" : [ 557.166626, 272.245605, 185.0, 49.0 ],
									"style" : "",
									"text" : "jit.gl.render #0_display @drawto #0_display @erase_color 0.094 0.118 0.1 1"
								}

							}
, 							{
								"box" : 								{
									"fontface" : 0,
									"fontname" : "Arial",
									"fontsize" : 12.0,
									"id" : "obj-35",
									"linecount" : 3,
									"maxclass" : "newobj",
									"numinlets" : 1,
									"numoutlets" : 2,
									"outlettype" : [ "jit_matrix", "" ],
									"patching_rect" : [ 532.166626, 449.745605, 225.0, 49.0 ],
									"style" : "",
									"text" : "jit.gl.graph #0_display @circpoints 1 @position 0 0 0 @antialias 1 @color 0.278 0.839 1 @scale 2 1 1"
								}

							}
, 							{
								"box" : 								{
									"fontname" : "Arial",
									"fontsize" : 12.0,
									"id" : "obj-41",
									"maxclass" : "newobj",
									"numinlets" : 2,
									"numoutlets" : 1,
									"outlettype" : [ "bang" ],
									"patching_rect" : [ 507.166626, 150.245605, 123.0, 22.0 ],
									"style" : "",
									"text" : "qmetro 30 @active 1"
								}

							}
, 							{
								"box" : 								{
									"fontname" : "Arial",
									"fontsize" : 12.0,
									"id" : "obj-47",
									"maxclass" : "newobj",
									"numinlets" : 1,
									"numoutlets" : 2,
									"outlettype" : [ "jit_matrix", "" ],
									"patching_rect" : [ 532.166626, 371.245605, 225.0, 22.0 ],
									"style" : "",
									"text" : "jit.catch~ 1 @mode 2 @downsample 50"
								}

							}
, 							{
								"box" : 								{
									"id" : "obj-3",
									"maxclass" : "comment",
									"numinlets" : 1,
									"numoutlets" : 0,
									"patching_rect" : [ 39.0, 88.0, 201.0, 20.0 ],
									"style" : "",
									"text" : "## Signal scope using Open GL ## "
								}

							}
, 							{
								"box" : 								{
									"fontname" : "Arial",
									"fontsize" : 12.0,
									"id" : "obj-1",
									"maxclass" : "newobj",
									"numinlets" : 1,
									"numoutlets" : 4,
									"outlettype" : [ "", "", "", "" ],
									"patching_rect" : [ 39.0, 121.0, 59.5, 22.0 ],
									"restore" : 									{
										"Rate" : [ 50.0 ]
									}
,
									"style" : "",
									"text" : "autopattr",
									"varname" : "u300006949"
								}

							}
, 							{
								"box" : 								{
									"fontname" : "Arial Bold",
									"fontsize" : 9.0,
									"id" : "obj-8",
									"maxclass" : "comment",
									"numinlets" : 1,
									"numoutlets" : 0,
									"patching_rect" : [ 293.0, 217.0, 30.0, 17.0 ],
									"presentation" : 1,
									"presentation_rect" : [ 2.0, 97.0, 30.0, 17.0 ],
									"style" : "",
									"text" : "Thru",
									"textcolor" : [ 1.0, 1.0, 1.0, 1.0 ]
								}

							}
, 							{
								"box" : 								{
									"fontname" : "Arial Bold",
									"fontsize" : 9.0,
									"id" : "obj-19",
									"maxclass" : "comment",
									"numinlets" : 1,
									"numoutlets" : 0,
									"patching_rect" : [ 291.0, 102.5, 38.0, 17.0 ],
									"presentation" : 1,
									"presentation_rect" : [ 2.0, 0.0, 38.0, 17.0 ],
									"style" : "",
									"text" : "Signal",
									"textcolor" : [ 1.0, 1.0, 1.0, 1.0 ]
								}

							}
, 							{
								"box" : 								{
									"fontname" : "Arial Bold",
									"fontsize" : 9.0,
									"id" : "obj-13",
									"maxclass" : "comment",
									"numinlets" : 1,
									"numoutlets" : 0,
									"patching_rect" : [ 39.0, 61.907501, 57.0, 17.0 ],
									"presentation" : 1,
									"presentation_rect" : [ 2.0, 19.0, 57.0, 17.0 ],
									"style" : "",
									"text" : "GL SCOPE",
									"textcolor" : [ 1.0, 1.0, 1.0, 1.0 ]
								}

							}
, 							{
								"box" : 								{
									"background" : 1,
									"bgmode" : 0,
									"border" : 0,
									"clickthrough" : 0,
									"enablehscroll" : 0,
									"enablevscroll" : 0,
									"id" : "obj-16",
									"lockeddragscroll" : 0,
									"maxclass" : "bpatcher",
									"name" : "background_sm.maxpat",
									"numinlets" : 0,
									"numoutlets" : 0,
									"offset" : [ 0.0, 0.0 ],
									"patching_rect" : [ 39.0, 32.0, 239.0, 10.0 ],
									"presentation" : 1,
									"presentation_rect" : [ 0.0, 0.0, 231.0, 132.0 ],
									"viewvisibility" : 1
								}

							}
 ],
						"lines" : [ 							{
								"patchline" : 								{
									"destination" : [ "obj-100", 0 ],
									"disabled" : 0,
									"hidden" : 0,
									"source" : [ "obj-101", 2 ]
								}

							}
, 							{
								"patchline" : 								{
									"destination" : [ "obj-100", 0 ],
									"disabled" : 0,
									"hidden" : 0,
									"source" : [ "obj-101", 0 ]
								}

							}
, 							{
								"patchline" : 								{
									"destination" : [ "obj-47", 0 ],
									"disabled" : 0,
									"hidden" : 0,
									"source" : [ "obj-101", 1 ]
								}

							}
, 							{
								"patchline" : 								{
									"destination" : [ "obj-11", 0 ],
									"disabled" : 0,
									"hidden" : 0,
									"source" : [ "obj-12", 0 ]
								}

							}
, 							{
								"patchline" : 								{
									"destination" : [ "obj-14", 0 ],
									"disabled" : 0,
									"hidden" : 0,
									"source" : [ "obj-12", 0 ]
								}

							}
, 							{
								"patchline" : 								{
									"destination" : [ "obj-47", 0 ],
									"disabled" : 0,
									"hidden" : 0,
									"source" : [ "obj-14", 0 ]
								}

							}
, 							{
								"patchline" : 								{
									"destination" : [ "obj-35", 0 ],
									"disabled" : 0,
									"hidden" : 0,
									"source" : [ "obj-15", 0 ]
								}

							}
, 							{
								"patchline" : 								{
									"destination" : [ "obj-47", 0 ],
									"disabled" : 0,
									"hidden" : 0,
									"source" : [ "obj-18", 0 ]
								}

							}
, 							{
								"patchline" : 								{
									"destination" : [ "obj-101", 0 ],
									"disabled" : 0,
									"hidden" : 0,
									"source" : [ "obj-41", 0 ]
								}

							}
, 							{
								"patchline" : 								{
									"destination" : [ "obj-35", 0 ],
									"disabled" : 0,
									"hidden" : 0,
									"source" : [ "obj-47", 0 ]
								}

							}
, 							{
								"patchline" : 								{
									"destination" : [ "obj-7", 0 ],
									"disabled" : 0,
									"hidden" : 0,
									"source" : [ "obj-5", 0 ]
								}

							}
, 							{
								"patchline" : 								{
									"destination" : [ "obj-18", 0 ],
									"disabled" : 0,
									"hidden" : 0,
									"source" : [ "obj-51", 0 ]
								}

							}
, 							{
								"patchline" : 								{
									"destination" : [ "obj-9", 0 ],
									"disabled" : 0,
									"hidden" : 0,
									"source" : [ "obj-7", 0 ]
								}

							}
, 							{
								"patchline" : 								{
									"destination" : [ "obj-10", 0 ],
									"disabled" : 0,
									"hidden" : 0,
									"source" : [ "obj-9", 0 ]
								}

							}
 ]
					}
,
					"patching_rect" : [ 706.333313, 882.0, 141.0, 116.0 ],
					"varname" : "GLScope",
					"viewvisibility" : 1
				}

			}
, 			{
				"box" : 				{
					"bgmode" : 0,
					"border" : 0,
					"clickthrough" : 0,
					"enablehscroll" : 0,
					"enablevscroll" : 0,
					"extract" : 1,
					"id" : "obj-17",
					"lockeddragscroll" : 0,
					"maxclass" : "bpatcher",
					"name" : "bp.Spectral.maxpat",
					"numinlets" : 1,
					"numoutlets" : 1,
					"offset" : [ 0.0, 0.0 ],
					"outlettype" : [ "signal" ],
					"patching_rect" : [ 44.333313, 889.0, 264.0, 116.0 ],
					"varname" : "bp.Spectral",
					"viewvisibility" : 1
				}

			}
, 			{
				"box" : 				{
					"bgmode" : 0,
					"border" : 0,
					"clickthrough" : 0,
					"enablehscroll" : 0,
					"enablevscroll" : 0,
					"extract" : 1,
					"id" : "obj-6",
					"lockeddragscroll" : 0,
					"maxclass" : "bpatcher",
					"name" : "bp.Global Transport.maxpat",
					"numinlets" : 0,
					"numoutlets" : 0,
					"offset" : [ 0.0, 0.0 ],
					"patching_rect" : [ 853.0, 8.999989, 111.0, 116.0 ],
					"varname" : "bp.Global Transport",
					"viewvisibility" : 1
				}

			}
, 			{
				"box" : 				{
					"bgmode" : 0,
					"border" : 0,
					"clickthrough" : 0,
					"enablehscroll" : 0,
					"enablevscroll" : 0,
					"extract" : 1,
					"id" : "obj-4",
					"lockeddragscroll" : 0,
					"maxclass" : "bpatcher",
					"name" : "bp.Sequencer.maxpat",
					"numinlets" : 2,
					"numoutlets" : 2,
					"offset" : [ 0.0, 0.0 ],
					"outlettype" : [ "signal", "signal" ],
					"patching_rect" : [ 90.0, 12.666667, 726.0, 232.0 ],
					"varname" : "bp.Sequencer",
					"viewvisibility" : 1
				}

			}
, 			{
				"box" : 				{
					"bgmode" : 0,
					"border" : 0,
					"clickthrough" : 0,
					"enablehscroll" : 0,
					"enablevscroll" : 0,
					"extract" : 1,
					"id" : "obj-21",
					"lockeddragscroll" : 0,
					"maxclass" : "bpatcher",
					"name" : "bp.Mono Risset Oscillator.maxpat",
					"numinlets" : 4,
					"numoutlets" : 1,
					"offset" : [ 0.0, 0.0 ],
					"outlettype" : [ "signal" ],
					"patching_rect" : [ 93.333336, 290.0, 346.0, 116.0 ],
					"varname" : "bp.Mono Risset Oscillator",
					"viewvisibility" : 1
				}

			}
, 			{
				"box" : 				{
					"bgmode" : 0,
					"border" : 0,
					"clickthrough" : 0,
					"enablehscroll" : 0,
					"enablevscroll" : 0,
					"extract" : 1,
					"id" : "obj-18",
					"lockeddragscroll" : 0,
					"maxclass" : "bpatcher",
					"name" : "bp.VCA.maxpat",
					"numinlets" : 2,
					"numoutlets" : 1,
					"offset" : [ 0.0, 0.0 ],
					"outlettype" : [ "signal" ],
					"patching_rect" : [ 332.0, 466.0, 113.0, 116.0 ],
					"varname" : "bp.VCA",
					"viewvisibility" : 1
				}

			}
, 			{
				"box" : 				{
					"bgmode" : 0,
					"border" : 0,
					"clickthrough" : 0,
					"enablehscroll" : 0,
					"enablevscroll" : 0,
					"extract" : 1,
					"id" : "obj-15",
					"lockeddragscroll" : 0,
					"maxclass" : "bpatcher",
					"name" : "bp.Gigaverb.maxpat",
					"numinlets" : 2,
					"numoutlets" : 2,
					"offset" : [ 0.0, 0.0 ],
					"outlettype" : [ "signal", "signal" ],
					"patching_rect" : [ 332.0, 742.0, 332.0, 116.0 ],
					"varname" : "bp.Gigaverb",
					"viewvisibility" : 1
				}

			}
, 			{
				"box" : 				{
					"bgmode" : 0,
					"border" : 0,
					"clickthrough" : 0,
					"enablehscroll" : 0,
					"enablevscroll" : 0,
					"extract" : 1,
					"id" : "obj-5",
					"lockeddragscroll" : 0,
					"maxclass" : "bpatcher",
					"name" : "bp.Chorus.maxpat",
					"numinlets" : 1,
					"numoutlets" : 2,
					"offset" : [ 0.0, 0.0 ],
					"outlettype" : [ "signal", "signal" ],
					"patching_rect" : [ 332.0, 595.0, 187.0, 116.0 ],
					"varname" : "bp.Chorus",
					"viewvisibility" : 1
				}

			}
, 			{
				"box" : 				{
					"bgmode" : 0,
					"border" : 0,
					"clickthrough" : 0,
					"enablehscroll" : 0,
					"enablevscroll" : 0,
					"extract" : 1,
					"id" : "obj-3",
					"lockeddragscroll" : 0,
					"maxclass" : "bpatcher",
					"name" : "bp.Stereo.maxpat",
					"numinlets" : 2,
					"numoutlets" : 0,
					"offset" : [ 0.0, 0.0 ],
					"patching_rect" : [ 332.0, 889.0, 148.0, 116.0 ],
					"varname" : "bp.Stereo",
					"viewvisibility" : 1
				}

			}
, 			{
				"box" : 				{
					"bgmode" : 0,
					"border" : 0,
					"clickthrough" : 0,
					"enablehscroll" : 0,
					"enablevscroll" : 0,
					"extract" : 1,
					"id" : "obj-1",
					"lockeddragscroll" : 0,
					"maxclass" : "bpatcher",
					"name" : "bp.ADSR.maxpat",
					"numinlets" : 2,
					"numoutlets" : 1,
					"offset" : [ 0.0, 0.0 ],
					"outlettype" : [ "signal" ],
					"patching_rect" : [ 490.0, 290.0, 234.0, 116.0 ],
					"varname" : "bp.ADSR",
					"viewvisibility" : 1
				}

			}
 ],
		"lines" : [ 			{
				"patchline" : 				{
					"destination" : [ "obj-18", 1 ],
					"disabled" : 0,
					"hidden" : 0,
					"source" : [ "obj-1", 0 ]
				}

			}
, 			{
				"patchline" : 				{
					"destination" : [ "obj-17", 0 ],
					"disabled" : 0,
					"hidden" : 0,
					"source" : [ "obj-15", 0 ]
				}

			}
, 			{
				"patchline" : 				{
					"destination" : [ "obj-2", 0 ],
					"disabled" : 0,
					"hidden" : 0,
					"source" : [ "obj-15", 0 ]
				}

			}
, 			{
				"patchline" : 				{
					"destination" : [ "obj-3", 1 ],
					"disabled" : 0,
					"hidden" : 0,
					"source" : [ "obj-15", 1 ]
				}

			}
, 			{
				"patchline" : 				{
					"destination" : [ "obj-3", 0 ],
					"disabled" : 0,
					"hidden" : 0,
					"source" : [ "obj-15", 0 ]
				}

			}
, 			{
				"patchline" : 				{
					"destination" : [ "obj-5", 0 ],
					"disabled" : 0,
					"hidden" : 0,
					"source" : [ "obj-18", 0 ]
				}

			}
, 			{
				"patchline" : 				{
					"destination" : [ "obj-18", 0 ],
					"disabled" : 0,
					"hidden" : 0,
					"source" : [ "obj-21", 0 ]
				}

			}
, 			{
				"patchline" : 				{
					"destination" : [ "obj-1", 0 ],
					"disabled" : 0,
					"hidden" : 0,
					"source" : [ "obj-4", 1 ]
				}

			}
, 			{
				"patchline" : 				{
					"destination" : [ "obj-21", 0 ],
					"disabled" : 0,
					"hidden" : 0,
					"source" : [ "obj-4", 0 ]
				}

			}
, 			{
				"patchline" : 				{
					"destination" : [ "obj-15", 1 ],
					"disabled" : 0,
					"hidden" : 0,
					"source" : [ "obj-5", 1 ]
				}

			}
, 			{
				"patchline" : 				{
					"destination" : [ "obj-15", 0 ],
					"disabled" : 0,
					"hidden" : 0,
					"source" : [ "obj-5", 0 ]
				}

			}
 ],
		"parameters" : 		{
			"obj-1::obj-31" : [ "Release", "Release", 0 ],
			"obj-5::obj-23" : [ "bypass[1]", "bypass", 0 ],
			"obj-15::obj-60" : [ "Damp", "Damp", 0 ],
			"obj-15::obj-64" : [ "Tail", "Tail", 0 ],
			"obj-4::obj-96" : [ "Pulse[1]", "Pulse", 0 ],
			"obj-4::obj-89" : [ "Reset", "Reset", 0 ],
			"obj-15::obj-66" : [ "Time", "Time", 0 ],
			"obj-1::obj-30" : [ "Legato", "Legato", 0 ],
			"obj-4::obj-28" : [ "Sync", "Sync", 0 ],
			"obj-21::obj-129" : [ "CV2", "CV2", 0 ],
			"obj-6::obj-76" : [ "Transport", "Transport", 0 ],
			"obj-18::obj-55" : [ "Bypass", "Bypass", 0 ],
			"obj-15::obj-62" : [ "Dry", "Dry", 0 ],
			"obj-4::obj-155" : [ "Swing amount", "Swing amount", 0 ],
			"obj-5::obj-3" : [ "Regen[1]", "Regen", 0 ],
			"obj-1::obj-20" : [ "Mute", "Mute", 0 ],
			"obj-1::obj-32" : [ "Sustain", "Sustain", 0 ],
			"obj-15::obj-28" : [ "Size", "Size", 0 ],
			"obj-4::obj-22" : [ "Pattern", "Pattern", 0 ],
			"obj-21::obj-106" : [ "CV3", "CV3", 0 ],
			"obj-18::obj-33" : [ "Quadrants", "Quadrants", 0 ],
			"obj-17::obj-69" : [ "LinLog", "LinLog", 0 ],
			"obj-15::obj-63" : [ "Early", "Early", 0 ],
			"obj-21::obj-12" : [ "KeyboardMode[1]", "KeyboardMode", 0 ],
			"obj-17::obj-7" : [ "display", "display", 0 ],
			"obj-4::obj-120" : [ "Max pulse[1]", "Max pulse", 0 ],
			"obj-3::obj-55" : [ "DSP", "DSP", 0 ],
			"obj-21::obj-46" : [ "Offset", "Offset", 0 ],
			"obj-21::obj-51" : [ "Freq", "Freq", 0 ],
			"obj-4::obj-125" : [ "NoteGrid", "NoteGrid", 0 ],
			"obj-18::obj-80" : [ "Response", "Response", 0 ],
			"obj-4::obj-185" : [ "Sequence", "Sequence", 0 ],
			"obj-4::obj-2" : [ "trans_trig", "trans_trig", 0 ],
			"obj-15::obj-3" : [ "Regen", "Regen", 0 ],
			"obj-4::obj-157" : [ "Swing enable", "Swing enable", 0 ],
			"obj-2::obj-51" : [ "Rate[1]", "Rate", 0 ],
			"obj-5::obj-1" : [ "Width[1]", "Width", 0 ],
			"obj-1::obj-1" : [ "Attack", "Attack", 0 ],
			"obj-2::obj-5::obj-2" : [ "pastebang", "pastebang", 0 ],
			"obj-5::obj-2" : [ "Rate", "Rate", 0 ],
			"obj-21::obj-53" : [ "Mute[2]", "Mute", 0 ],
			"obj-21::obj-64" : [ "octaves", "octaves", 0 ],
			"obj-3::obj-52" : [ "Level", "Level", 0 ],
			"obj-6::obj-129" : [ "Tempo", "Tempo", 0 ],
			"obj-3::obj-56" : [ "OutputChannel", "OutputChannel", 0 ],
			"obj-4::obj-130" : [ "mute", "mute", 0 ],
			"obj-4::obj-95" : [ "Steps", "Steps", 0 ],
			"obj-15::obj-65" : [ "Spread", "Spread", 0 ],
			"obj-4::obj-25" : [ "GateTime[1]", "GateTime", 0 ],
			"obj-3::obj-22" : [ "Mute[1]", "Mute", 0 ],
			"obj-15::obj-23" : [ "bypass[2]", "bypass", 0 ],
			"obj-1::obj-29" : [ "Decay", "Decay", 0 ],
			"obj-5::obj-28" : [ "Center[1]", "Center", 0 ],
			"obj-21::obj-45" : [ "FreqMode", "FreqMode", 0 ],
			"obj-21::obj-16" : [ "root_note", "root_note", 0 ],
			"obj-4::obj-4" : [ "live.text", "live.text", 0 ]
		}
,
		"dependency_cache" : [ 			{
				"name" : "bp.ADSR.maxpat",
				"bootpath" : "C74:/packages/BEAP/clippings/BEAP/Envelope",
				"type" : "JSON",
				"implicit" : 1
			}
, 			{
				"name" : "background_sm.maxpat",
				"bootpath" : "C74:/packages/BEAP/misc",
				"type" : "JSON",
				"implicit" : 1
			}
, 			{
				"name" : "bp.Stereo.maxpat",
				"bootpath" : "C74:/packages/BEAP/clippings/BEAP/Output",
				"type" : "JSON",
				"implicit" : 1
			}
, 			{
				"name" : "bp.Chorus.maxpat",
				"bootpath" : "C74:/packages/BEAP/clippings/BEAP/Effects",
				"type" : "JSON",
				"implicit" : 1
			}
, 			{
				"name" : "bp.Gigaverb.maxpat",
				"bootpath" : "C74:/packages/BEAP/clippings/BEAP/Effects",
				"type" : "JSON",
				"implicit" : 1
			}
, 			{
				"name" : "bp.VCA.maxpat",
				"bootpath" : "C74:/packages/BEAP/clippings/BEAP/Level",
				"type" : "JSON",
				"implicit" : 1
			}
, 			{
				"name" : "bp.Mono Risset Oscillator.maxpat",
				"bootpath" : "C74:/packages/BEAP/clippings/BEAP/Oscillator",
				"type" : "JSON",
				"implicit" : 1
			}
, 			{
				"name" : "mro_saw.maxpat",
				"bootpath" : "C74:/packages/BEAP/misc/mro_osc",
				"type" : "JSON",
				"implicit" : 1
			}
, 			{
				"name" : "bp.Sequencer.maxpat",
				"bootpath" : "C74:/packages/BEAP/clippings/BEAP/Sequencer",
				"type" : "JSON",
				"implicit" : 1
			}
, 			{
				"name" : "swingCalc.js",
				"bootpath" : "C74:/packages/BEAP/misc",
				"type" : "TEXT",
				"implicit" : 1
			}
, 			{
				"name" : "bp.Global Transport.maxpat",
				"bootpath" : "C74:/packages/BEAP/clippings/BEAP/Sequencer",
				"type" : "JSON",
				"implicit" : 1
			}
, 			{
				"name" : "bp.Spectral.maxpat",
				"bootpath" : "C74:/packages/BEAP/clippings/BEAP/Scope",
				"type" : "JSON",
				"implicit" : 1
			}
, 			{
				"name" : "pastebang.maxpat",
				"bootpath" : "C74:/packages/BEAP/misc",
				"type" : "JSON",
				"implicit" : 1
			}
 ],
		"autosave" : 0,
		"styles" : [ 			{
				"name" : "AudioStatus_Menu",
				"default" : 				{
					"bgfillcolor" : 					{
						"type" : "color",
						"color" : [ 0.294118, 0.313726, 0.337255, 1 ],
						"color1" : [ 0.454902, 0.462745, 0.482353, 0.0 ],
						"color2" : [ 0.290196, 0.309804, 0.301961, 1.0 ],
						"angle" : 270.0,
						"proportion" : 0.39,
						"autogradient" : 0
					}

				}
,
				"parentstyle" : "",
				"multi" : 0
			}
 ]
	}

}
