{
	"patcher" : 	{
		"fileversion" : 1,
		"appversion" : 		{
			"major" : 8,
			"minor" : 0,
			"revision" : 3,
			"architecture" : "x64",
			"modernui" : 1
		}
,
		"classnamespace" : "dsp.gen",
		"rect" : [ 242.0, 157.0, 719.0, 613.0 ],
		"bglocked" : 0,
		"openinpresentation" : 0,
		"default_fontsize" : 12.0,
		"default_fontface" : 0,
		"default_fontname" : "Arial",
		"gridonopen" : 1,
		"gridsize" : [ 15.0, 15.0 ],
		"gridsnaponopen" : 1,
		"objectsnaponopen" : 1,
		"statusbarvisible" : 2,
		"toolbarvisible" : 1,
		"lefttoolbarpinned" : 0,
		"toptoolbarpinned" : 0,
		"righttoolbarpinned" : 0,
		"bottomtoolbarpinned" : 0,
		"toolbars_unpinned_last_save" : 0,
		"tallnewobj" : 0,
		"boxanimatetime" : 200,
		"enablehscroll" : 1,
		"enablevscroll" : 1,
		"devicewidth" : 0.0,
		"description" : "",
		"digest" : "",
		"tags" : "",
		"style" : "",
		"subpatcher_template" : "",
		"boxes" : [ 			{
				"box" : 				{
					"id" : "obj-8",
					"maxclass" : "newobj",
					"numinlets" : 1,
					"numoutlets" : 0,
					"patching_rect" : [ 383.5, 563.0, 100.0, 22.0 ],
					"text" : "out 1"
				}

			}
, 			{
				"box" : 				{
					"code" : "Buffer header(\"header\");\r\nBuffer cue0(\"cue0\");\r\nBuffer cue1(\"cue1\");\r\nBuffer seek(\"seek\");\r\nif(in1 >= 0){\r\n\tp = peek(seek, 0, 0);\r\n\tif(p == 1){\r\n\t\tp = 0;\r\n\t}else{\r\n\t\tp = 1;\r\n\t};\r\n\r\n\tif(p == 0){\r\n\t\ts = peek(cue0, in1, 0);\r\n\t\tpoke(header, s, in1);\r\n\t}else if(p == 1){\r\n\t\ts = peek(cue1, in1, 0);\r\n\t\tpoke(header, s, in1);\r\n\t};\r\n\tout1 = in1;\r\n};\r\n\r\n",
					"fontface" : 0,
					"fontname" : "<Monospaced>",
					"fontsize" : 12.0,
					"id" : "obj-3",
					"maxclass" : "codebox",
					"numinlets" : 1,
					"numoutlets" : 1,
					"outlettype" : [ "" ],
					"patching_rect" : [ 363.5, 73.0, 340.0, 478.0 ]
				}

			}
, 			{
				"box" : 				{
					"code" : "//At first, function.\r\n\r\n//important order to syntax\r\nBuffer recieve(\"recieve\");\r\nBuffer cue0(\"cue0\");\r\nBuffer cue1(\"cue1\");\r\nBuffer seek(\"seek\");\r\n//important: order to syntax\r\nif(in1 >= 0){\r\n\tgp = peek(seek, 0, 0);\r\n\tif(gp == 0){\r\n\t\tgs = peek(recieve, in1, 0);\r\n\t\tpoke(cue0, gs, in1);\t\r\n\t}else if(gp == 1){\r\n\t\tgs = peek(recieve, in1, 0);\r\n\t\tpoke(cue1, gs, in1);\r\n\t};\r\n\tif(in1 == 959){\r\n\t\tif(gp==1){\r\n\t\t\tpoke(seek, 0, 0);\r\n\t\t}else{\r\n\t\t\tpoke(seek, 1, 0);\r\n\t\t}\t\r\n\t}\r\n\tout1 = in1;\r\n};\r\n",
					"fontface" : 0,
					"fontname" : "<Monospaced>",
					"fontsize" : 12.0,
					"id" : "obj-6",
					"maxclass" : "codebox",
					"numinlets" : 1,
					"numoutlets" : 1,
					"outlettype" : [ "" ],
					"patching_rect" : [ 15.5, 73.0, 325.0, 502.0 ]
				}

			}
, 			{
				"box" : 				{
					"id" : "obj-1",
					"maxclass" : "newobj",
					"numinlets" : 0,
					"numoutlets" : 1,
					"outlettype" : [ "" ],
					"patching_rect" : [ 141.5, 18.0, 137.0, 22.0 ],
					"text" : "in 1"
				}

			}
, 			{
				"box" : 				{
					"id" : "obj-4",
					"maxclass" : "newobj",
					"numinlets" : 1,
					"numoutlets" : 0,
					"patching_rect" : [ 203.5, 472.0, 35.0, 22.0 ],
					"text" : "out 1"
				}

			}
 ],
		"lines" : [ 			{
				"patchline" : 				{
					"destination" : [ "obj-6", 0 ],
					"source" : [ "obj-1", 0 ]
				}

			}
, 			{
				"patchline" : 				{
					"destination" : [ "obj-8", 0 ],
					"source" : [ "obj-3", 0 ]
				}

			}
, 			{
				"patchline" : 				{
					"destination" : [ "obj-3", 0 ],
					"midpoints" : [ 25.0, 585.0, 199.0, 585.0, 199.0, 585.0, 373.0, 585.0 ],
					"source" : [ "obj-6", 0 ]
				}

			}
 ]
	}

}
